<svg width="1220" height="238" viewBox="0 0 1220 238" fill="none" xmlns="http://www.w3.org/2000/svg">
<mask id="mask0_269_4" style="mask-type:alpha" maskUnits="userSpaceOnUse" x="1" y="55" width="1182" height="107">
<path d="M77.7599 58.2V86.136H53.9999V159H25.1999V86.136H1.43994V58.2H77.7599ZM115.172 132.504H152.612V159H86.3718V58.2H151.892V84.408H115.172V95.352H148.292V121.272H115.172V132.504ZM218.858 58.2H247.658V159H224.618L192.938 112.92V159H164.138V58.2H187.178L218.858 104.28V58.2ZM288.901 161.304C271.909 161.304 260.053 154.392 253.333 140.568L277.525 126.312C279.829 131.016 283.573 133.368 288.757 133.368C294.613 133.368 297.541 130.632 297.541 125.16V58.2H326.341V125.88C326.341 136.92 323.077 145.608 316.549 151.944C310.021 158.184 300.805 161.304 288.901 161.304ZM339.356 58.2H368.156V159H339.356V58.2ZM497.18 159H465.212L440.156 115.8V159H411.356V58.2H440.156V98.52L463.772 58.2H495.74L465.788 107.16L497.18 159ZM592.759 58.2L558.631 120.696V159H529.831V120.696L495.703 58.2H527.671L544.231 93.624L560.791 58.2H592.759ZM645.317 159L641.861 146.04H612.773L609.317 159H578.357L610.469 58.2H644.165L676.277 159H645.317ZM618.965 123H635.669L627.317 92.04L618.965 123ZM736.779 58.2H765.579V159H742.539L710.859 112.92V159H682.059V58.2H705.099L736.779 104.28V58.2ZM820.254 58.2C830.718 58.2 839.454 61.512 846.462 68.136C853.47 74.664 856.974 83.4 856.974 94.344C856.974 105.288 853.47 114.072 846.462 120.696C839.454 127.224 830.718 130.488 820.254 130.488H808.734V159H779.934V58.2H820.254ZM820.254 102.552C822.462 102.552 824.334 101.832 825.87 100.392C827.406 98.856 828.174 96.84 828.174 94.344C828.174 91.848 827.406 89.88 825.87 88.44C824.334 86.904 822.462 86.136 820.254 86.136H808.734V102.552H820.254ZM936.245 151.368C928.661 157.992 918.773 161.304 906.581 161.304C894.389 161.304 884.501 157.992 876.917 151.368C869.333 144.744 865.541 136.056 865.541 125.304V58.2H894.341V122.136C894.341 129.624 898.421 133.368 906.581 133.368C914.741 133.368 918.821 129.624 918.821 122.136V58.2H947.621V125.304C947.621 136.056 943.829 144.744 936.245 151.368ZM987.306 106.44L1000.27 58.2H1021.87L1017.55 106.44H987.306ZM1030.57 159V137.976L1063.4 102.408C1063.98 101.736 1064.79 100.824 1065.85 99.672C1067 98.52 1067.77 97.704 1068.15 97.224C1068.63 96.744 1069.21 96.12 1069.88 95.352C1070.65 94.488 1071.13 93.816 1071.32 93.336C1071.61 92.76 1071.85 92.184 1072.04 91.608C1072.33 90.936 1072.47 90.264 1072.47 89.592C1072.47 87.96 1071.9 86.616 1070.74 85.56C1069.59 84.408 1067.91 83.832 1065.7 83.832C1060.33 83.832 1056.34 87.24 1053.75 94.056L1028.41 80.232C1031.77 72.264 1036.71 66.216 1043.24 62.088C1049.86 57.96 1057.21 55.896 1065.27 55.896C1075.16 55.896 1083.61 58.728 1090.62 64.392C1097.72 69.96 1101.27 77.688 1101.27 87.576C1101.27 93.624 1099.93 98.904 1097.24 103.416C1094.65 107.928 1090.52 113.352 1084.86 119.688L1074.63 131.064H1103.43V159H1030.57ZM1109.18 159V137.976L1142.01 102.408C1142.58 101.736 1143.4 100.824 1144.46 99.672C1145.61 98.52 1146.38 97.704 1146.76 97.224C1147.24 96.744 1147.82 96.12 1148.49 95.352C1149.26 94.488 1149.74 93.816 1149.93 93.336C1150.22 92.76 1150.46 92.184 1150.65 91.608C1150.94 90.936 1151.08 90.264 1151.08 89.592C1151.08 87.96 1150.5 86.616 1149.35 85.56C1148.2 84.408 1146.52 83.832 1144.31 83.832C1138.94 83.832 1134.95 87.24 1132.36 94.056L1107.02 80.232C1110.38 72.264 1115.32 66.216 1121.85 62.088C1128.47 57.96 1135.82 55.896 1143.88 55.896C1153.77 55.896 1162.22 58.728 1169.22 64.392C1176.33 69.96 1179.88 77.688 1179.88 87.576C1179.88 93.624 1178.54 98.904 1175.85 103.416C1173.26 107.928 1169.13 113.352 1163.46 119.688L1153.24 131.064H1182.04V159H1109.18Z" fill="#21244C"/>
</mask>
<g mask="url(#mask0_269_4)">
<path d="M1422.82 -168.152H-249.148V357H1422.82V-168.152Z" fill="#1F1E24"/>
<path d="M1422.82 -168.152H-249.148V357H1422.82V-168.152Z" fill="black" fill-opacity="0.2"/>
<path d="M612.587 -69.9313L563.65 -173.326L-94.7174 318.539L-45.7801 421.933L612.587 -69.9313Z" fill="#E54B4B"/>
<path d="M352.101 234.12C402.706 234.12 443.73 182.579 443.73 119C443.73 55.4211 402.706 3.88013 352.101 3.88013C301.496 3.88013 260.472 55.4211 260.472 119C260.472 182.579 301.496 234.12 352.101 234.12Z" fill="#FFA986"/>
<path d="M372.432 51.7391L410.742 138.172L155.677 316.624L117.367 230.191L372.432 51.7391Z" fill="#1F1E24"/>
<path d="M132.55 -269.043L238.95 -28.9907L-16.1149 149.461L-122.515 -90.5911L132.55 -269.043Z" fill="#FFA986"/>
<path d="M589.664 111.239L627.974 197.672L372.909 376.124L334.599 289.691L589.664 111.239Z" fill="#454140"/>
<path d="M1165.45 -108.735L1116.51 -212.13L458.142 279.735L507.08 383.129L1165.45 -108.735Z" fill="#E54B4B"/>
<path d="M904.963 195.316C955.568 195.316 996.592 143.775 996.592 80.1957C996.592 16.6167 955.568 -34.9243 904.963 -34.9243C854.358 -34.9243 813.334 16.6167 813.334 80.1957C813.334 143.775 854.358 195.316 904.963 195.316Z" fill="#FFA986"/>
<path d="M925.294 12.9349L963.604 99.3679L708.539 277.82L670.229 191.387L925.294 12.9349Z" fill="#1F1E24"/>
<path d="M685.411 -307.848L791.811 -67.7952L536.746 110.657L430.346 -129.396L685.411 -307.848Z" fill="#FFA986"/>
<path d="M1142.53 72.4349L1180.84 158.868L925.775 337.32L887.465 250.887L1142.53 72.4349Z" fill="#454140"/>
</g>
</svg>
