<svg width="132" height="62" viewBox="0 0 132 62" fill="none" xmlns="http://www.w3.org/2000/svg">
<mask id="mask0_236_169" style="mask-type:alpha" maskUnits="userSpaceOnUse" x="0" y="5" width="132" height="49">
<path d="M13.1423 5.25653V9.96314H9.12655V22.2391H4.25894V9.96314H0.243164V5.25653H13.1423ZM19.4655 17.7751H25.7934V22.2391H14.5979V5.25653H25.6717V9.67201H19.4655V11.5158H25.0632V15.8828H19.4655V17.7751ZM36.9899 5.25653H41.8575V22.2391H37.9634L32.609 14.4757V22.2391H27.7414V5.25653H31.6355L36.9899 13.02V5.25653ZM48.8281 22.6273C45.9562 22.6273 43.9524 21.4628 42.8166 19.1338L46.9054 16.7319C47.2948 17.5244 47.9276 17.9207 48.8038 17.9207C49.7935 17.9207 50.2884 17.4598 50.2884 16.5378V5.25653H55.156V16.6591C55.156 18.5191 54.6044 19.9829 53.501 21.0504C52.3977 22.1017 50.8401 22.6273 48.8281 22.6273ZM57.3557 5.25653H62.2233V22.2391H57.3557V5.25653ZM15.7222 53.2392H10.3191L6.08429 45.9609V53.2392H1.21669V36.2565H6.08429V43.0496L10.0757 36.2565H15.4788L10.4165 44.5052L15.7222 53.2392ZM31.8763 36.2565L26.1082 46.7858V53.2392H21.2406V46.7858L15.4725 36.2565H20.8756L23.6744 42.2247L26.4733 36.2565H31.8763ZM40.7594 53.2392L40.1753 51.0557H35.259L34.6749 53.2392H29.4422L34.8696 36.2565H40.5647L45.9921 53.2392H40.7594ZM36.3055 47.1739H39.1287L37.7171 41.9578L36.3055 47.1739ZM56.2178 36.2565H61.0854V53.2392H57.1913L51.8369 45.4757V53.2392H46.9693V36.2565H50.8634L56.2178 44.02V36.2565ZM70.3262 36.2565C72.0948 36.2565 73.5713 36.8145 74.7557 37.9305C75.9402 39.0304 76.5324 40.5022 76.5324 42.346C76.5324 44.1898 75.9402 45.6698 74.7557 46.7858C73.5713 47.8856 72.0948 48.4355 70.3262 48.4355H68.3792V53.2392H63.5116V36.2565H70.3262ZM70.3262 43.7289C70.6994 43.7289 71.0158 43.6076 71.2754 43.365C71.535 43.1062 71.6648 42.7665 71.6648 42.346C71.6648 41.9255 71.535 41.5939 71.2754 41.3513C71.0158 41.0925 70.6994 40.9632 70.3262 40.9632H68.3792V43.7289H70.3262ZM89.9303 51.9533C88.6485 53.0693 86.9773 53.6273 84.9167 53.6273C82.8561 53.6273 81.1849 53.0693 79.9031 51.9533C78.6213 50.8373 77.9804 49.3736 77.9804 47.5621V36.2565H82.848V47.0284C82.848 48.2899 83.5375 48.9207 84.9167 48.9207C86.2958 48.9207 86.9854 48.2899 86.9854 47.0284V36.2565H91.853V47.5621C91.853 49.3736 91.2121 50.8373 89.9303 51.9533ZM98.5602 44.3839L100.751 36.2565H104.401L103.671 44.3839H98.5602ZM105.872 53.2392V49.6971L111.421 43.7046C111.518 43.5914 111.656 43.4378 111.835 43.2437C112.03 43.0496 112.159 42.9121 112.224 42.8312C112.305 42.7504 112.403 42.6452 112.516 42.5159C112.646 42.3703 112.727 42.2571 112.76 42.1762C112.808 42.0792 112.849 41.9821 112.881 41.8851C112.93 41.7718 112.954 41.6586 112.954 41.5454C112.954 41.2705 112.857 41.044 112.662 40.8661C112.468 40.672 112.184 40.575 111.811 40.575C110.902 40.575 110.229 41.1492 109.79 42.2975L105.507 39.9685C106.075 38.626 106.91 37.6071 108.014 36.9116C109.133 36.2161 110.375 35.8684 111.738 35.8684C113.409 35.8684 114.837 36.3455 116.021 37.2998C117.222 38.2378 117.822 39.5398 117.822 41.2058C117.822 42.2247 117.595 43.1143 117.141 43.8745C116.702 44.6346 116.005 45.5485 115.048 46.6159L113.32 48.5325H118.187V53.2392H105.872ZM119.158 53.2392V49.6971L124.707 43.7046C124.805 43.5914 124.943 43.4378 125.121 43.2437C125.316 43.0496 125.446 42.9121 125.51 42.8312C125.592 42.7504 125.689 42.6452 125.803 42.5159C125.932 42.3703 126.013 42.2571 126.046 42.1762C126.095 42.0792 126.135 41.9821 126.168 41.8851C126.216 41.7718 126.241 41.6586 126.241 41.5454C126.241 41.2705 126.143 41.044 125.949 40.8661C125.754 40.672 125.47 40.575 125.097 40.575C124.188 40.575 123.515 41.1492 123.077 42.2975L118.793 39.9685C119.361 38.626 120.197 37.6071 121.3 36.9116C122.42 36.2161 123.661 35.8684 125.024 35.8684C126.695 35.8684 128.123 36.3455 129.307 37.2998C130.508 38.2378 131.108 39.5398 131.108 41.2058C131.108 42.2247 130.881 43.1143 130.427 43.8745C129.989 44.6346 129.291 45.5485 128.334 46.6159L126.606 48.5325H131.473V53.2392H119.158Z" fill="#21244C"/>
</mask>
<g mask="url(#mask0_236_169)">
<path d="M145.183 -6.40222H-40.9014V61.9999H145.183V-6.40222Z" fill="#1F1E24"/>
<path d="M145.183 -6.40222H-40.9014V61.9999H145.183V-6.40222Z" fill="black" fill-opacity="0.2"/>
<path d="M100.566 6.3912L92.5317 -7.07611L-15.5494 56.9902L-7.51564 70.4575L100.566 6.3912Z" fill="#E54B4B"/>
<path d="M57.803 45.9946C66.1106 45.9946 72.8453 39.2813 72.8453 31C72.8453 22.7187 66.1106 16.0054 57.803 16.0054C49.4954 16.0054 42.7607 22.7187 42.7607 31C42.7607 39.2813 49.4954 45.9946 57.803 45.9946Z" fill="#FFA986"/>
<path d="M61.1405 22.2391L67.4297 33.4972L25.5569 56.7409L19.2676 45.4828L61.1405 22.2391Z" fill="#1F1E24"/>
<path d="M21.7604 -19.5434L39.2275 11.7239L-2.64527 34.9676L-20.1124 3.70026L21.7604 -19.5434Z" fill="#FFA986"/>
<path d="M96.8021 29.9891L103.091 41.2472L61.2185 64.4909L54.9293 53.2328L96.8021 29.9891Z" fill="#454140"/>
<path d="M44.6199 79.5217C54.3277 79.5217 62.1974 71.677 62.1974 62C62.1974 52.323 54.3277 44.4782 44.6199 44.4782C34.9122 44.4782 27.0425 52.323 27.0425 62C27.0425 71.677 34.9122 79.5217 44.6199 79.5217Z" fill="#E54B4B"/>
</g>
</svg>
